<svg width="10" height="14" viewBox="0 0 10 14" fill="none" xmlns="http://www.w3.org/2000/svg">
<path d="M5 0C2.23875 0 0 2.35069 0 5.25C0 6.39166 0.356458 7.43925 0.948958 8.29719C0.959583 8.31775 0.96125 8.34072 0.973333 8.36041L4.30667 13.6104C4.46125 13.8539 4.72167 14 5 14C5.27833 14 5.53875 13.8539 5.69333 13.6104L9.02667 8.36041C9.03896 8.34072 9.04042 8.31775 9.05104 8.29719C9.64354 7.43925 10 6.39166 10 5.25C10 2.35069 7.76125 0 5 0ZM5 7C4.07958 7 3.33333 6.21644 3.33333 5.25C3.33333 4.28356 4.07958 3.5 5 3.5C5.92042 3.5 6.66667 4.28356 6.66667 5.25C6.66667 6.21644 5.92042 7 5 7Z" fill="white" fill-opacity="0.45"/>
</svg>
