<svg width="23" height="26" viewBox="0 0 23 26" fill="none" xmlns="http://www.w3.org/2000/svg">
<path fill-rule="evenodd" clip-rule="evenodd" d="M12.3189 0.134332C11.7874 -0.0447775 11.2126 -0.0447775 10.6811 0.134332L2.85265 2.77213C2.18592 2.9968 1.64343 3.49466 1.35799 4.14386C-2.05514 11.9068 1.17584 21.0104 8.69246 24.8095L10.644 25.7958C11.1829 26.0681 11.8171 26.0681 12.3561 25.7958L14.3076 24.8095C21.8242 21.0104 25.0551 11.9068 21.642 4.14386C21.3566 3.49466 20.8141 2.9968 20.1473 2.77213L12.3189 0.134332ZM17.4314 10.093C17.8821 9.67304 17.9107 8.9633 17.4953 8.50769C17.0799 8.05209 16.3778 8.02314 15.927 8.44305L10.2151 13.7645L7.82913 11.4501C7.38686 11.0211 6.68431 11.0358 6.25993 11.4829C5.83555 11.93 5.85005 12.6402 6.29232 13.0691L9.4313 16.114C9.85452 16.5244 10.5207 16.5311 10.9519 16.1294L17.4314 10.093Z" fill="#5CE091"/>
</svg>
