<svg width="21" height="26" viewBox="0 0 21 26" fill="none" xmlns="http://www.w3.org/2000/svg">
<path d="M19.9215 5.57118C18.562 2.88632 15.9346 0.904631 12.8889 0.252594C9.69932 -0.437799 6.43136 0.303734 3.93463 2.27263C1.42483 4.22875 0 7.15652 0 10.2889C0 13.6002 2.02614 17.065 5.08496 19.0722V20.1334C5.07188 20.4914 5.05881 21.0411 5.50326 21.4886C5.96077 21.9489 6.64051 22 7.17646 22H13.8823C14.5882 22 15.1241 21.8082 15.4902 21.4502C15.9869 20.9516 15.9738 20.3124 15.9607 19.9672V19.0722C20.013 16.4001 22.562 10.7619 19.9215 5.57118Z" fill="#5CE091"/>
<path d="M14.1947 26C14.1265 26 14.0469 25.9892 13.9787 25.9676C11.6937 25.3514 9.29498 25.3514 7.00995 25.9676C6.58932 26.0757 6.14596 25.8486 6.03228 25.4486C5.90723 25.0486 6.15733 24.627 6.57796 24.5189C9.14719 23.827 11.8528 23.827 14.422 24.5189C14.8427 24.6378 15.0928 25.0486 14.9677 25.4486C14.854 25.7838 14.5357 26 14.1947 26Z" fill="#5CE091"/>
</svg>
