<svg width="24" height="20" viewBox="0 0 24 20" fill="none" xmlns="http://www.w3.org/2000/svg">
<path fill-rule="evenodd" clip-rule="evenodd" d="M0.00400639 5.99652C-0.0330611 5.58477 0.189111 5.1763 0.58643 4.99553L11.1724 0.179425C11.6983 -0.0598084 12.3017 -0.0598084 12.8276 0.179425L23.4136 4.99553C23.8109 5.1763 24.0331 5.58477 23.996 5.99652C24.0331 6.40827 23.8109 6.81674 23.4136 6.9975L12.8276 11.8136C12.3017 12.0529 11.6983 12.0529 11.1724 11.8136L0.58643 6.9975C0.189111 6.81674 -0.0330611 6.40827 0.00400639 5.99652ZM0.58643 11.001C0.0836585 10.7723 -0.138656 10.1789 0.0898764 9.67563C0.318409 9.17248 0.911248 8.94999 1.41402 9.17869L12 13.9948L22.586 9.17869C23.0888 8.94999 23.6816 9.17248 23.9101 9.67563C24.1387 10.1789 23.9163 10.7723 23.4136 11.001L12.8276 15.8171C12.3017 16.0563 11.6983 16.0563 11.1724 15.8171L0.58643 11.001ZM0.58643 15.0045C0.0836585 14.7758 -0.138656 14.1824 0.0898764 13.6792C0.318409 13.176 0.911248 12.9535 1.41402 13.1822L12 17.9983L22.586 13.1822C23.0888 12.9535 23.6816 13.176 23.9101 13.6792C24.1387 14.1824 23.9163 14.7758 23.4136 15.0045L12.8276 19.8206C12.3017 20.0598 11.6983 20.0598 11.1724 19.8206L0.58643 15.0045Z" fill="#5CE091"/>
</svg>
