<svg width="15" height="13" viewBox="0 0 15 13" fill="none" xmlns="http://www.w3.org/2000/svg">
<path d="M15 0.8125V4.0625L7.5 7.3125L0 4.0625V0.8125C0 0.597012 0.0790176 0.390349 0.21967 0.237976C0.360322 0.0856026 0.551088 0 0.75 0H14.25C14.4489 0 14.6397 0.0856026 14.7803 0.237976C14.921 0.390349 15 0.597012 15 0.8125ZM0 5.81263V12.1875C0 12.403 0.0790176 12.6097 0.21967 12.762C0.360322 12.9144 0.551088 13 0.75 13H14.25C14.4489 13 14.6397 12.9144 14.7803 12.762C14.921 12.6097 15 12.403 15 12.1875V5.81263L7.5 9.06262L0 5.81263Z" fill="#5CE091"/>
</svg>
