<svg width="12" height="14" viewBox="0 0 12 14" fill="none" xmlns="http://www.w3.org/2000/svg">
<path d="M11.6884 11.0527C11.1558 10.1326 10.2834 9.09049 8.86308 8.49805C8.05078 9.05027 7.06397 9.3754 6.00015 9.3754C4.93573 9.3754 3.94892 9.05029 3.13659 8.49805C1.71633 9.09049 0.843905 10.1327 0.311556 11.0527C-0.39497 12.2731 0.158961 13.9999 1.38087 13.9999C2.60281 13.9999 6.00017 13.9999 6.00017 13.9999C6.00017 13.9999 9.3972 13.9999 10.6192 13.9999C11.841 13.9999 12.395 12.2731 11.6884 11.0527Z" fill="white" fill-opacity="0.45"/>
<path d="M5.99992 8.22042C8.08621 8.22042 9.77696 6.57689 9.77696 4.54984V3.67055C9.77696 1.64353 8.08621 0 5.99992 0C3.91332 0 2.22229 1.64353 2.22229 3.67058V4.54987C2.22229 6.57689 3.91335 8.22042 5.99992 8.22042Z" fill="white" fill-opacity="0.45"/>
</svg>
