<svg width="15" height="15" viewBox="0 0 15 15" fill="none" xmlns="http://www.w3.org/2000/svg">
<path d="M9.873 6.345C9.914 6.74693 9.9375 7.13593 9.9375 7.5C9.9375 8.1815 9.85514 8.95107 9.72914 9.72914C8.95107 9.85514 8.1815 9.9375 7.5 9.9375C6.82157 9.9375 6.05224 9.85536 5.27079 9.72893C5.14487 8.95086 5.0625 8.18143 5.0625 7.5C5.0625 7.13607 5.08599 6.747 5.12706 6.345C5.9472 6.47629 6.76536 6.5625 7.5 6.5625C8.23472 6.5625 9.05286 6.47629 9.873 6.345Z" fill="white" fill-opacity="0.45"/>
<path d="M10.9823 6.14243C11.033 6.61279 11.0625 7.07071 11.0625 7.5C11.0625 8.12636 10.9998 8.8135 10.8999 9.51093C12.3161 9.21543 13.625 8.83793 14.3262 8.623C14.5528 8.55357 14.6419 8.52593 14.7613 8.47814C14.821 8.45429 14.8757 8.43 14.9471 8.39593C14.982 8.10214 15 7.80314 15 7.5C15 6.69857 14.8743 5.92653 14.6416 5.20247L14.5809 5.22155C13.8477 5.44461 12.4751 5.83893 10.9823 6.14243Z" fill="white" fill-opacity="0.45"/>
<path d="M14.2155 4.15677C13.4784 4.38015 12.1993 4.74314 10.8285 5.02574C10.5127 3.10661 9.95929 1.19251 9.693 0.3257C11.673 0.930193 13.3052 2.33191 14.2155 4.15677Z" fill="white" fill-opacity="0.45"/>
<path d="M9.72264 5.23021C8.94664 5.35558 8.1795 5.4375 7.5 5.4375C6.8205 5.4375 6.05341 5.35558 5.27745 5.23021C5.57479 3.41432 6.10557 1.55933 6.377 0.673807C6.44643 0.447186 6.47407 0.358171 6.52186 0.2387C6.54571 0.179014 6.57 0.124271 6.60407 0.0529571C6.89786 0.0179857 7.19686 0 7.5 0C7.81672 0 8.12879 0.0196286 8.43521 0.0577357C8.44172 0.0826 8.44771 0.10485 8.45364 0.1259C8.47122 0.188093 8.49872 0.2755 8.54486 0.422171L8.54972 0.437579C8.78107 1.17302 9.39422 3.22429 9.72264 5.23021Z" fill="white" fill-opacity="0.45"/>
<path d="M4.17146 5.02571C4.48579 3.11505 5.03561 1.21126 5.30137 0.34415L5.30702 0.325693C3.32698 0.930179 1.69479 2.33189 0.784536 4.15676C1.52156 4.38014 2.80068 4.74311 4.17146 5.02571Z" fill="white" fill-opacity="0.45"/>
<path d="M0.358457 5.20246C0.1257 5.92653 0 6.69857 0 7.5C0 7.8135 0.0192357 8.1225 0.0565928 8.42593L0.174793 8.46536L0.175736 8.46564L0.176893 8.46607L0.177707 8.46629C0.21575 8.47893 1.33075 8.84714 2.79913 9.2125C3.21347 9.31557 3.65219 9.41743 4.10004 9.51079C4.00018 8.81343 3.9375 8.12636 3.9375 7.5C3.9375 7.07057 3.96696 6.61264 4.01766 6.14243C2.52449 5.83883 1.15156 5.44437 0.41855 5.22135L0.41345 5.21979L0.358457 5.20246Z" fill="white" fill-opacity="0.45"/>
<path d="M7.5 11.0625C8.12636 11.0625 8.8135 10.9998 9.51093 10.8999C9.21543 12.3161 8.83793 13.625 8.623 14.3261C8.55357 14.5528 8.52593 14.6418 8.47814 14.7613C8.45429 14.821 8.43 14.8757 8.39593 14.9471C8.10214 14.982 7.80314 15 7.5 15C7.19686 15 6.89786 14.982 6.60407 14.9471C6.57 14.8757 6.54571 14.821 6.52186 14.7613C6.47407 14.6419 6.44643 14.5528 6.377 14.3262C6.16207 13.6251 5.78461 12.3162 5.48913 10.9002C6.18421 10.9997 6.8715 11.0625 7.5 11.0625Z" fill="white" fill-opacity="0.45"/>
<path d="M2.5275 10.3042C1.59895 10.0731 0.808107 9.84107 0.325693 9.693C1.05184 12.0716 2.92844 13.9481 5.30702 14.6743L5.30137 14.6559C5.06932 13.8987 4.62069 12.3512 4.30136 10.6989C3.68036 10.5788 3.07659 10.4408 2.5275 10.3042Z" fill="white" fill-opacity="0.45"/>
<path d="M14.6559 9.69864C13.8987 9.93071 12.3511 10.3794 10.6986 10.6986C10.3794 12.3511 9.93071 13.8986 9.69864 14.6559L9.693 14.6743C12.0716 13.9481 13.9481 12.0716 14.6743 9.693L14.6559 9.69864Z" fill="white" fill-opacity="0.45"/>
<path d="M0.0787856 8.445C0.10475 8.44836 0.125914 8.45193 0.132936 8.4535C0.139086 8.455 0.148721 8.45757 0.152214 8.4585L0.159936 8.46071L0.164093 8.462L0.168464 8.46336L0.172129 8.4645C0.170071 8.46386 0.1284 8.45343 0.0787856 8.445Z" fill="white" fill-opacity="0.45"/>
</svg>
