<svg width="20" height="22" viewBox="0 0 20 22" fill="none" xmlns="http://www.w3.org/2000/svg">
<path d="M13.375 2.11112H19M13.375 6.55562H19M15.625 11.0001H19M5.5 15.4444C4.87868 15.4444 4.375 15.9418 4.375 16.5555C4.375 17.1692 4.87868 17.6666 5.5 17.6666C6.12132 17.6666 6.625 17.1692 6.625 16.5555C6.625 15.9418 6.12132 15.4444 5.5 15.4444ZM5.5 15.4444V7.66674M5.5 16.5555L5.50795 16.5634M10 16.5555C10 19.0102 7.98524 21 5.5 21C3.01472 21 1 19.0102 1 16.5555C1 15.4284 1.42485 14.3991 2.125 13.6157V4.33337C2.125 2.49241 3.63604 1 5.5 1C7.36396 1 8.875 2.49241 8.875 4.33337V13.6157C9.5752 14.3991 10 15.4284 10 16.5555Z" stroke="#5CE091" stroke-width="2" stroke-linecap="round" stroke-linejoin="round"/>
</svg>
