<svg width="15" height="15" viewBox="0 0 15 15" fill="none" xmlns="http://www.w3.org/2000/svg">
<path d="M15 7.5C15 11.6421 11.6421 15 7.5 15C3.35786 15 0 11.6421 0 7.5C0 3.35786 3.35786 0 7.5 0C11.6421 0 15 3.35786 15 7.5Z" fill="white" fill-opacity="0.45"/>
<path fill-rule="evenodd" clip-rule="evenodd" d="M7.5 3.9375C7.81065 3.9375 8.0625 4.18934 8.0625 4.5V7.26697L9.77273 8.97727C9.9924 9.19695 9.9924 9.55305 9.77273 9.77273C9.55305 9.9924 9.19695 9.9924 8.97727 9.77273L7.10227 7.89773C6.99675 7.79228 6.9375 7.64917 6.9375 7.5V4.5C6.9375 4.18934 7.18935 3.9375 7.5 3.9375Z" fill="#151414"/>
</svg>
